<?xml version="1.0" encoding="utf-8"?>
<!-- Generator: Adobe Illustrator 26.3.1, SVG Export Plug-In . SVG Version: 6.00 Build 0)  -->
<svg version="1.1" id="Layer_1" xmlns="http://www.w3.org/2000/svg" xmlns:xlink="http://www.w3.org/1999/xlink" x="0px" y="0px"
	 viewBox="0 0 1080 1080" style="enable-background:new 0 0 1080 1080;" xml:space="preserve">
<style type="text/css">
	.st0{fill:#003049;stroke:#231F20;stroke-miterlimit:10;}
	
		.st1{clip-path:url(#SVGID_00000001636866314907678120000018410726243993846452_);fill:url(#SVGID_00000132793410660613729560000000500550951284615354_);}
</style>
<rect class="st0" width="1080" height="1080"/>
<g>
	<defs>
		<path id="SVGID_1_" d="M922.02,437.03c-30.68-6.37-59.39,0.63-86.6,13.74c-11.61,5.59-20.36,6.23-31.88-0.23
			c-33.49-18.79-67.47-36.88-105.62-44.89c-49.3-10.98-98.18-12.21-145.99,6.92c-3.07,1.23-5.99,1.91-8.87,2.11
			c-7.52,0.54-13.31-2.02-14.47-2.49c-9.56-3.92-76.9-17.13-132.73-6.03c-43,8.54-106.64,36.95-119.1,44.52
			c-1.49,0.9-7.08,4.43-14.73,4.63c-4.52,0.12-9.13-1.07-14.43-3.63c-28.11-13.58-57.83-21.09-89.38-14.53
			c-28.02,5.83-45.76,26.53-41.96,48.18c4.23,24.12,29.24,39.03,58.03,34.47c27.15-4.3,50.61-17.6,74.22-30.55
			c5.18-2.84,9.61-7.29,16.99-3.02c47.47,27.45,76.3,123.79,51.18,173.15c-4.33,8.5-9.03,17.83-20.86,17.22
			c-12.07-0.62-17.18-10.12-20.81-19.48c-11.31-29.16-11.13-59.04-4.54-89.34c1.35-6.2,9.19-16.11,1.14-18.62
			c-9.47-2.95-15.93,7.78-18.93,16.34c-10.21,29.13-9.03,58.91-0.31,87.95c6.47,21.55,15.97,42.98,43.35,43.32
			c28.26,0.35,38.69-21.03,44.38-43.58c16.43-65.06-0.64-121.77-47.42-169.11c-1.83-1.85-8.03-6.94-7.29-12.84
			c0.86-6.87,10.52-10.83,17.01-13.56c11.7-4.93,28.24-12.26,50.18-23.11c47.62-15.7,95.79-24.69,145.6-11.12
			c4.29,1.17,8.1,4.11,12.13,6.23c-3.12,2.83-6.04,5.94-9.41,8.44c-68.39,50.65-95.66,154.93-59.97,230.43
			c6.93,14.66,15.27,28.89,34.43,28.09c19.93-0.83,28.08-15.77,31.91-32.17c6.85-29.39,11.56-59.27,17.91-88.78
			c1.94-9,3.53-21.66,15.25-21.61c11.64,0.05,13.34,12.6,15.27,21.68c6.29,29.53,11.03,59.4,17.85,88.8
			c3.8,16.41,11.86,31.4,31.91,31.98c19.82,0.58,28.17-14.3,34.89-29.49c34.79-78.59,7.48-178.86-62.1-229.5
			c-2.98-2.17-5.4-5.13-8.07-7.72c2.42-1.52,6.08-3.68,10.71-5.89c31.02-14.79,60.64-10.26,94.51-4.6
			c51.97,8.68,56.93,21.49,111.84,44.61c2.2,0.92,8.35,3.51,8.99,8c0.37,2.58-1.64,5.53-6.13,9.82
			c-42,40.12-59.02,89.86-54.63,147.35c2.96,38.66,22.13,66.5,46.59,67.79c25.38,1.33,44.11-19.16,50.13-60.19
			c4.02-27.34,6.57-55.86-10.36-80.89c-2.57-3.79-9.29-8.15-12.77-7.24c-6.99,1.83-1.65,8.04-0.69,11.98
			c6.96,28.46,8.93,57.11,1.21,85.51c-3.54,13.04-7.23,29.6-24.5,29.97c-18.36,0.4-22.77-16.78-25.67-30.22
			c-13.17-61.01,4.21-112.69,50.23-155c7.82-7.19,13.94-6.92,22.78-1.85c24.16,13.88,48.59,27.82,76.92,31.27
			c27.22,3.32,51.44-12.13,54.49-33.68C967.2,462.71,950.19,442.88,922.02,437.03z M231.6,475.56
			c-18.52,10.13-36.97,20.97-58.16,24.05c-14.95,2.18-32.82,2.51-36.48-16.25c-0.32-1.63-1.31-7.21,1.21-12.93
			c3.39-7.67,10.96-10.65,16.82-12.96c9.27-3.65,17.89-3.51,23.56-2.81c19.51,0.73,35.84,4.16,51.47,10.8
			C236.01,468.01,240.15,470.89,231.6,475.56z M620.97,661.34c-3.39,6.54-5.78,15.86-15.57,14.41c-8.86-1.31-11.54-9.97-13.11-17.34
			c-6.38-30.02-11.4-60.34-18.32-90.22c-4.11-17.74-11.44-35.41-33.87-35.14c-22.19,0.27-29.55,17.64-33.52,35.59
			c-6.33,28.57-10.82,57.55-17.02,86.15c-1.85,8.52-4.11,20.05-14.93,20.75c-10.98,0.71-13.73-10.83-17.15-18.84
			c-8.61-20.17-11.59-41.53-11.11-63.57c1.95-64.12,24.47-116.62,83.73-148.79c7.81-4.24,14.12-3.72,21.54,0.1
			C623.04,481.19,657.94,589.94,620.97,661.34z M945.19,481.77c-0.81,5.41-4.04,8.98-5.38,10.18c-13.55,12.16-29.32,9.77-44.8,4.71
			c-9.08-2.97-18.05-6.6-26.52-10.98c-8.3-4.3-15.9-9.93-23.81-14.98c6.26-3.79,15.74-8.72,28.01-12.24
			c9.81-2.81,27.62-7.69,47.75-1.98c5.63,1.6,19.21,5.63,23.4,15.69C944.35,473.39,945.89,477.1,945.19,481.77z M295.24,408.38
			c26.79-0.09,47.64-20.47,47.98-46.9c0.34-27.22-20.46-48.36-47.76-48.53c-26.83-0.16-47.21,19.9-47.65,46.91
			C247.35,387.45,267.9,408.47,295.24,408.38z M295.07,333.34c18.07-0.04,27.82,10.74,27.55,28.2
			c-0.26,17.04-10.99,25.64-27.04,27.02c-18.05-1.45-27.54-11-27.41-27.9C268.29,343.82,277.7,333.38,295.07,333.34z M540.34,377.17
			c27.69,0.59,48.47-19.47,48.79-47.11c0.31-26.65-20.16-48.11-46.27-48.5c-26.81-0.41-49.05,20.95-49.42,47.45
			C493.08,355.1,514.02,376.61,540.34,377.17z M542.75,302.07c17.46,0.53,27.35,11.9,26.38,29.22
			c-0.93,16.64-11.61,25.32-28.59,25.93c-16.71-1.92-26.79-11.55-26.51-28.02C514.31,311.88,525.54,301.54,542.75,302.07z
			 M785.5,408.35c26.74-0.05,47.75-20.76,47.98-47.3c0.23-26.77-20.36-47.85-47.01-48.09c-27.28-0.25-47.97,19.61-48.47,46.54
			C737.49,387.3,758,408.4,785.5,408.35z M785.95,333.4c17.13,0.01,26.99,10.37,27.06,27.19c0.07,16.93-10.09,26.93-27,27.37
			c-17.21,0.45-26.01-9.68-27.86-25.58C758.98,343.65,768.2,333.38,785.95,333.4z M243.97,730.95H221.2v66.59h14.25v-25.76l8.32-0.2
			c2.64-0.07,5.82-0.95,9.53-2.64s6.5-4.25,8.34-7.68s2.76-7.06,2.76-10.88c0-5.82-1.88-10.51-5.63-14.07
			C255.02,732.73,250.09,730.95,243.97,730.95z M246.98,757.37c-1.71,1.72-3.76,2.59-6.16,2.59h-5.58v-17.04l3.2-0.2
			c3.55,0,6.29,0.74,8.22,2.23c1.93,1.49,2.89,3.58,2.89,6.29C249.54,753.6,248.69,755.65,246.98,757.37z M296.89,730.95h37.48
			v13.19h-23.13v13.44h23.13v12.98h-23.13v13.79h23.13v13.19h-37.48V730.95z M367.42,730.95h37.48v13.19h-23.13v13.44h23.13v12.98
			h-23.13v13.79h23.13v13.19h-37.48V730.95z M478.58,761.11c1.78-3.68,2.67-7.23,2.67-10.64c0-5.98-1.94-10.73-5.81-14.25
			c-3.88-3.51-9.15-5.27-15.82-5.27h-21.93v66.59h14.35v-25.76h1.62l17.23,25.76h16.49l-18.63-27.76
			C473.53,767.68,476.8,764.79,478.58,761.11z M455.24,760.16h-3.1v-17.34h3.31c3.46,0,6.17,0.74,8.12,2.21s2.93,3.46,2.93,5.96
			C466.49,757.1,462.74,760.16,455.24,760.16z M544.82,730.03c5.88,0,12.19,1.49,18.92,4.46v16.23c-7.2-4.33-13.51-6.49-18.92-6.49
			s-9.74,1.86-12.98,5.58s-4.87,8.72-4.87,15.01c0,5.95,1.71,10.71,5.12,14.28c3.41,3.57,7.98,5.35,13.69,5.35
			c5,0,10.99-2.01,17.95-6.04v16.13c-7.81,2.6-14.32,3.91-19.53,3.91c-8.96,0-16.57-3.29-22.82-9.86
			c-6.25-6.58-9.38-14.6-9.38-24.06c0-9.64,3.19-17.79,9.56-24.47C527.94,733.37,535.7,730.03,544.82,730.03z M609.87,783.18h19.63
			v14.35h-33.88v-66.59h14.25V783.18z M683.53,730.95l-26.67,66.59h14.37l5.22-13.08h25.55l5.33,13.08h14.44l-27.13-66.59H683.53z
			 M681.26,772.38l7.83-19.63l8,19.63H681.26z M789.54,768.53c1.5,2.67,2.26,5.56,2.26,8.67c0,5.71-2.31,10.68-6.92,14.91
			c-4.61,4.23-10.07,6.34-16.36,6.34c-6.9,0-13.71-3.25-20.44-9.74l9.43-11.01c4.23,4.36,8.18,6.54,11.87,6.54
			c1.72,0,3.38-0.77,4.97-2.3c1.59-1.53,2.38-3.14,2.38-4.83c0-3.47-3.67-6.53-11.01-9.18c-4.19-1.53-7.17-2.96-8.93-4.3
			c-1.76-1.34-3.24-3.28-4.44-5.83c-1.2-2.55-1.8-5.16-1.8-7.84c0-5.92,1.93-10.72,5.78-14.4c3.85-3.69,8.89-5.53,15.11-5.53
			c7.37,0,13.56,2.32,18.56,6.95l-8.93,9.79c-4.7-2.77-8.08-4.16-10.14-4.16c-1.59,0-2.96,0.6-4.11,1.8s-1.72,2.63-1.72,4.28
			c0,3.28,2.98,6.12,8.93,8.52c4.36,1.86,7.66,3.54,9.89,5.05C786.16,763.77,788.03,765.86,789.54,768.53z M859.76,768.53
			c1.5,2.67,2.26,5.56,2.26,8.67c0,5.71-2.31,10.68-6.92,14.91c-4.62,4.23-10.07,6.34-16.36,6.34c-6.9,0-13.71-3.25-20.44-9.74
			l9.43-11.01c4.23,4.36,8.18,6.54,11.87,6.54c1.72,0,3.38-0.77,4.97-2.3c1.59-1.53,2.38-3.14,2.38-4.83
			c0-3.47-3.67-6.53-11.01-9.18c-4.19-1.53-7.17-2.96-8.93-4.3c-1.76-1.34-3.24-3.28-4.44-5.83c-1.2-2.55-1.8-5.16-1.8-7.84
			c0-5.92,1.93-10.72,5.78-14.4s8.89-5.53,15.11-5.53c7.37,0,13.56,2.32,18.56,6.95l-8.93,9.79c-4.7-2.77-8.08-4.16-10.14-4.16
			c-1.59,0-2.96,0.6-4.11,1.8s-1.72,2.63-1.72,4.28c0,3.28,2.98,6.12,8.93,8.52c4.36,1.86,7.66,3.54,9.89,5.05
			S858.25,765.86,859.76,768.53z"/>
	</defs>
	<clipPath id="SVGID_00000169555569031311892640000013600192672932942229_">
		<use xlink:href="#SVGID_1_"  style="overflow:visible;"/>
	</clipPath>
	
		<linearGradient id="SVGID_00000096040235029726082060000010026987225915726976_" gradientUnits="userSpaceOnUse" x1="53.5467" y1="525.3138" x2="1026.4534" y2="525.3138">
		<stop  offset="0" style="stop-color:#FCBF49"/>
		<stop  offset="0.5" style="stop-color:#F77F00"/>
		<stop  offset="1" style="stop-color:#D62828"/>
	</linearGradient>
	
		<rect x="53.55" y="90.18" style="clip-path:url(#SVGID_00000169555569031311892640000013600192672932942229_);fill:url(#SVGID_00000096040235029726082060000010026987225915726976_);" width="972.91" height="870.27"/>
</g>
</svg>
